<?xml version="1.0" encoding="UTF-8" standalone="no"?>
<svg
   width="79.790802"
   height="37.282734"
   viewBox="0 0 79.790802 37.282734"
   fill="none"
   version="1.1"
   id="svg29"
   sodipodi:docname="62e7f41c3e5d40372864d1b8940e80cb.svg"
   xmlns:inkscape="http://www.inkscape.org/namespaces/inkscape"
   xmlns:sodipodi="http://sodipodi.sourceforge.net/DTD/sodipodi-0.dtd"
   xmlns="http://www.w3.org/2000/svg"
   xmlns:svg="http://www.w3.org/2000/svg">
  <sodipodi:namedview
     id="namedview31"
     pagecolor="#ffffff"
     bordercolor="#666666"
     borderopacity="1.0"
     inkscape:pageshadow="2"
     inkscape:pageopacity="0.0"
     inkscape:pagecheckerboard="0" />
  <g
     clip-path="url(#clip0)"
     id="g22"
     transform="translate(-0.195801,-0.0639648)">
    <path
       d="m 19.8511,18.2233 c 0.1098,0.1098 0.2584,0.2089 0.4216,0.2997 0.2793,0.099 0.5175,0.1978 0.7149,0.2962 0.2839,0.1424 0.4797,0.249 0.5862,0.3197 l -0.746,2.1316 c -0.1599,-0.1065 -0.3905,-0.2218 -0.6928,-0.3459 -0.3023,-0.124 -0.6443,-0.249 -1.0261,-0.373 -0.3817,-0.124 -0.7993,-0.2267 -1.2518,-0.3062 -0.4525,-0.0804 -0.9108,-0.1201 -1.372,-0.1201 -0.9767,0 -1.8564,0.1686 -2.6374,0.5058 -0.7819,0.3371 -1.4475,0.8264 -1.9979,1.4649 -0.5503,0.6395 -0.9728,1.4166 -1.2654,2.3313 -0.2926,0.9146 -0.4398,1.9407 -0.4398,3.0772 0,1.1017 0.1288,2.1045 0.3865,3.0114 0.2578,0.9059 0.6434,1.683 1.1589,2.3312 0.5145,0.6482 1.1588,1.1501 1.932,1.5057 0.7722,0.3556 1.6743,0.5329 2.7042,0.5329 1.1898,0 2.1762,-0.124 2.9571,-0.373 0.7819,-0.2491 1.3681,-0.4709 1.7586,-0.6667 l 0.6666,2.1317 c -0.125,0.0891 -0.3469,0.1995 -0.6666,0.3333 -0.3197,0.1337 -0.7189,0.2625 -1.1995,0.3866 -0.4806,0.124 -1.0387,0.2306 -1.6791,0.3197 -0.6385,0.0891 -1.3313,0.1337 -2.0774,0.1337 -1.2964,0 -2.4775,-0.2132 -3.5433,-0.6395 -1.0658,-0.4263 -1.9804,-1.0483 -2.74492,-1.8651 -0.7635,-0.8168 -1.35454,-1.8255 -1.77214,-3.024 -0.4176,-1.1995 -0.62592,-2.5715 -0.62592,-4.1169 0,-1.5454 0.23545,-2.9174 0.70634,-4.1169 0.27119,-0.6908 0.5967,-1.318 0.9767,-1.8818 -0.06642,8e-4 -0.13328,0.0011 -0.20056,0.0011 -1.29641,0 -2.47751,-0.2131 -3.54331,-0.6395 C 4.27298,20.4421 3.35736,19.8201 2.59386,19.0033 1.83036,18.1865 1.23932,17.1779 0.821718,15.9793 0.404117,14.7808 0.195801,13.4078 0.195801,11.8624 0.195801,10.317 0.431246,8.94501 0.902138,7.7455 1.37303,6.54598 2.00767,5.53831 2.80702,4.72152 3.60637,3.90473 4.53943,3.28269 5.60524,2.85637 6.67104,2.43004 7.80757,2.21688 9.01581,2.21688 c 0.7635,0 1.45239,0.05329 2.06479,0.15987 0.6133,0.10659 1.1462,0.23061 1.5987,0.37304 0.4534,0.14243 0.8216,0.28389 1.1055,0.42632 0.2839,0.14243 0.4796,0.24901 0.5862,0.31974 L 13.6249,5.62746 C 13.465,5.52087 13.2344,5.40557 12.9321,5.28058 12.6298,5.15656 12.2878,5.03157 11.9061,4.90755 11.5243,4.78353 11.1067,4.68083 10.6542,4.60138 10.2018,4.52096 9.74346,4.48123 9.28226,4.48123 8.30559,4.48123 7.42582,4.64982 6.64488,4.987 5.86297,5.32515 5.19732,5.81349 4.64698,6.452 4.09664,7.09148 3.67419,7.86855 3.38158,8.7832 3.088,9.69785 2.9417,10.7239 2.9417,11.8605 c 0,1.1016 0.12886,2.1044 0.38659,3.0113 0.25773,0.906 0.64336,1.683 1.15882,2.3312 0.51546,0.6482 1.15882,1.1501 1.93201,1.5057 0.77319,0.3556 1.67428,0.5329 2.70423,0.5329 1.15095,0 2.11975,-0.0988 2.89745,-0.3789 0.2538,-0.1337 0.5162,-0.2548 0.7873,-0.3633 1.0658,-0.4263 2.2023,-0.6394 3.4106,-0.6394 0.2704,0 0.5314,0.0067 0.783,0.02 -0.0382,-0.2788 -0.0573,-0.5784 -0.0573,-0.8988 V 0.487379 L 19.4025,0.0639648 V 16.5839 c 0,0.405 0.0349,0.7403 0.1056,1.0048 0.0698,0.2645 0.1851,0.4757 0.343,0.6346 z"
       fill="#4591c1"
       id="path2" />
    <path
       d="m 26.2023,5.12943 c -0.4437,0 -0.8216,-0.1463 -1.1326,-0.43988 -0.311,-0.29358 -0.4661,-0.68793 -0.4661,-1.18595 0,-0.49705 0.1551,-0.89237 0.4661,-1.18595 0.311,-0.29261 0.6879,-0.43988 1.1326,-0.43988 0.4438,0 0.8217,0.1463 1.1327,0.43988 0.311,0.29358 0.466,0.6889 0.466,1.18595 0,0.49705 -0.156,0.89237 -0.466,1.18595 -0.312,0.29358 -0.6889,0.43988 -1.1327,0.43988 z"
       fill="#4591c1"
       id="path4" />
    <path
       d="M 27.4173,21.5612 27.4542,7.63407 h -2.4785 l 0.0424,13.47163 -0.0569,12.3508 c 0,1.3139 0.3168,2.2818 0.9505,2.9039 0.6336,0.622 1.7072,0.9505 3.2216,0.9863 l 0.342,-2.0783 c -0.3876,-0.0533 -0.7131,-0.1192 -0.9767,-0.1996 -0.2635,-0.0794 -0.4757,-0.1996 -0.6336,-0.3595 -0.158,-0.1598 -0.2733,-0.373 -0.343,-0.6394 -0.0707,-0.2665 -0.1056,-0.6037 -0.1056,-1.0125 z"
       fill="#4591c1"
       id="path6" />
    <path
       d="M 34.0776,7.60016 C 33.1359,7.76003 32.3811,7.91118 31.8123,8.05264 V 21.5079 h 2.4775 V 9.81122 c 0.0892,-0.01841 0.2355,-0.04458 0.4399,-0.08043 0.2045,-0.03488 0.4351,-0.06588 0.6928,-0.09301 0.2577,-0.02713 0.529,-0.04844 0.8129,-0.06685 0.2849,-0.01744 0.56,-0.02617 0.8265,-0.02617 0.6569,0 1.2082,0.0843 1.652,0.25289 0.4437,0.16956 0.7993,0.43985 1.0658,0.81295 0.2664,0.372 0.4563,0.8613 0.5726,1.465 0.1153,0.6036 0.1734,1.3322 0.1734,2.1849 v 7.2474 h 2.4785 v -7.7803 c 0,-0.9409 -0.0891,-1.8022 -0.2664,-2.5841 C 42.5595,10.3625 42.2533,9.69204 41.8183,9.13201 41.3832,8.57295 40.8009,8.13791 40.0733,7.82688 39.3446,7.51683 38.43,7.36084 37.3283,7.36084 c -1.2256,0 -2.3098,0.07945 -3.2507,0.23932 z"
       fill="#4591c1"
       id="path8" />
    <path
       d="m 48.5358,5.14784 c -0.4438,0 -0.8217,-0.1463 -1.1327,-0.43988 -0.311,-0.29261 -0.4661,-0.68793 -0.4661,-1.18595 0,-0.49705 0.1551,-0.89237 0.4661,-1.18595 0.311,-0.29358 0.6879,-0.43989 1.1327,-0.43989 0.4437,0 0.8216,0.14631 1.1326,0.43989 0.311,0.29358 0.4661,0.6889 0.4661,1.18595 0,0.49705 -0.156,0.89237 -0.4661,1.18595 -0.311,0.29358 -0.6879,0.43988 -1.1326,0.43988 z"
       fill="#4591c1"
       id="path10" />
    <path
       d="M 49.7886,21.5079 H 47.311 V 7.65248 h 2.4776 z"
       fill="#4591c1"
       id="path12" />
    <path
       fill-rule="evenodd"
       clip-rule="evenodd"
       d="m 57.5466,20.8684 c 1.0658,0.4264 2.2469,0.6395 3.5433,0.6395 0.7461,0 1.4389,-0.0445 2.0783,-0.1337 0.6306,-0.0878 1.1823,-0.1924 1.6569,-0.314 v 15.7691 c 0.7277,0.1773 1.5406,0.2975 2.4378,0.3595 0.8972,0.062 1.7188,0.093 2.4649,0.093 1.5096,0 2.8951,-0.1909 4.1566,-0.5726 1.2616,-0.3827 2.3448,-0.9602 3.2507,-1.7324 0.906,-0.7732 1.6084,-1.7499 2.1055,-2.931 0.497,-1.1811 0.746,-2.5715 0.746,-4.1702 0,-1.5987 -0.249,-2.9881 -0.746,-4.1702 -0.498,-1.1811 -1.1995,-2.1587 -2.1055,-2.9309 -0.9059,-0.7723 -1.9891,-1.3497 -3.2507,-1.7315 -1.2615,-0.3817 -2.647,-0.5726 -4.1566,-0.5726 -0.7461,0 -1.5677,0.031 -2.4649,0.093 -0.8862,0.0612 -1.6893,0.1792 -2.411,0.353 -0.1056,0.0139 -0.2323,0.0369 -0.3872,0.0733 -0.7994,0.188 -1.9446,0.2519 -3.1345,0.2519 -1.0299,0 -1.932,-0.1773 -2.7042,-0.5329 -0.7732,-0.3556 -1.4175,-0.8575 -1.932,-1.5057 -0.5155,-0.6482 -0.9011,-1.4252 -1.1588,-2.3312 -0.2578,-0.9069 -0.3866,-1.9097 -0.3866,-3.0113 0,-1.1366 0.1463,-2.16265 0.4399,-3.0773 0.2926,-0.91465 0.714,-1.69172 1.2654,-2.3312 0.5493,-0.63851 1.2159,-1.12685 1.9978,-1.465 0.781,-0.33718 1.6608,-0.50577 2.6374,-0.50577 0.4612,0 0.9195,0.03973 1.372,0.12015 0.4535,0.07945 0.8701,0.18215 1.2528,0.30617 0.3818,0.12402 0.7238,0.24901 1.0261,0.37303 0.3023,0.12499 0.5329,0.24029 0.6928,0.34688 l 0.746,-2.13161 C 66.4722,3.42512 66.2765,3.31854 65.9926,3.17611 65.7087,3.03368 65.3405,2.89222 64.8871,2.74979 64.4336,2.60736 63.9007,2.48334 63.2884,2.37675 62.676,2.27017 61.9871,2.21688 61.2236,2.21688 c -1.2082,0 -2.3447,0.21316 -3.4105,0.63949 -1.0658,0.42632 -1.9989,1.04836 -2.7982,1.86515 -0.7994,0.81679 -1.434,1.82446 -1.9049,3.02398 -0.4709,1.19951 -0.7064,2.5715 -0.7064,4.1169 0,1.5454 0.2084,2.9184 0.626,4.1169 0.4176,1.1986 1.0086,2.2072 1.7721,3.024 0.7635,0.8168 1.6791,1.4388 2.7449,1.8651 z m 17.8842,12.2694 c -1.2082,1.2528 -3.0375,1.8787 -5.4889,1.8787 -0.7286,0 -1.2925,-0.0087 -1.6917,-0.0262 C 67.851,34.9729 67.571,34.9545 67.4111,34.937 V 20.8151 c 0.1599,-0.0174 0.4399,-0.0358 0.8391,-0.0532 0.3992,-0.0185 0.9631,-0.0272 1.6917,-0.0272 2.4514,0 4.2807,0.6259 5.4889,1.8788 1.2073,1.2518 1.8119,3.0065 1.8119,5.2621 0,2.2556 -0.6046,4.0103 -1.8119,5.2622 z"
       fill="#4591c1"
       id="path14" />
    <path
       d="m 58.5194,36.5241 c -0.5687,0.1424 -1.3187,0.2936 -2.2517,0.4525 -0.9321,0.1599 -2.0115,0.2403 -3.2372,0.2403 -1.0658,0 -1.963,-0.156 -2.6906,-0.4661 -0.7287,-0.311 -1.3148,-0.7499 -1.7586,-1.3186 -0.4447,-0.5688 -0.7635,-1.2393 -0.9592,-2.0115 -0.1958,-0.7732 -0.2936,-1.6297 -0.2936,-2.5715 v -7.7804 h 2.4785 v 7.2475 c 0,1.6878 0.2664,2.8951 0.7993,3.6237 0.5329,0.7287 1.4292,1.092 2.6907,1.092 0.2664,0 0.5416,-0.0087 0.8265,-0.0262 0.2839,-0.0174 0.5503,-0.0397 0.7993,-0.0668 0.249,-0.0272 0.4748,-0.0533 0.6792,-0.0804 0.2045,-0.0272 0.3508,-0.0572 0.4399,-0.0931 V 23.0679 h 2.4775 z"
       fill="#4591c1"
       id="path16" />
    <path
       d="m 37.3663,24.0803 h -0.0281 c -1.2102,0.0068 -2.3506,0.437 -3.211,1.2121 -0.7486,0.6742 -1.2111,1.5393 -1.3341,2.4768 -1.9261,0.0545 -3.214,1.9743 -3.214,3.7698 0,2.001 1.6285,3.6413 3.6702,3.7437 v 2e-4 h 0.0044 c 0.0656,0.0032 0.1317,0.0048 0.1981,0.0048 0.0583,0 0.1166,-0.0017 0.1748,-0.0048 h 0.5151 v -1.6898 h -0.8924 c -1.1229,-0.0756 -1.9649,-0.9767 -1.9649,-2.0541 0,-0.5426 0.2141,-1.1646 0.5658,-1.6084 0.0688,-0.1221 0.1638,-0.2296 0.282,-0.3139 0.061,-0.0601 0.1269,-0.1143 0.2064,-0.157 0.093,-0.0717 0.5387,-0.2674 0.6782,-0.2858 0.0217,-0.0049 0.045,-0.0123 0.0691,-0.02 0.0427,-0.0136 0.0878,-0.0279 0.1305,-0.0304 0.0698,-0.0136 0.25,-0.0136 0.2597,-0.0136 0.0604,-0.0134 0.2322,0.0168 0.3178,0.0319 h 10e-5 c 0.0255,0.0045 0.0434,0.0076 0.0483,0.0079 10e-4,-4e-4 0.002,-9e-4 0.003,-0.0015 0.054,0.0111 0.0994,0.0202 0.1292,0.0263 l 8e-4,1e-4 c 0.0134,0.0027 0.0236,0.0048 0.0298,0.0061 0.0106,0.0011 0.0216,0.0018 0.0327,0.0024 0.0183,0.0012 0.0367,0.0023 0.0535,0.0053 0.0175,-0.0048 0.0339,-0.0135 0.0485,-0.0261 0.0048,-0.0039 0.0135,-0.1647 0.0135,-0.1861 0,-0.0717 0.0078,-0.1424 0.0214,-0.2112 0.0097,-0.4098 0.5377,-1.5871 0.6714,-1.7402 0.1202,-0.1598 0.4137,-0.4602 0.4215,-0.466 0.6249,-0.4467 1.2867,-0.7693 2.0977,-0.7732 1.371,0 2.5182,0.8304 2.8098,1.9359 0.0359,0.1017 0.1541,0.686 0.1415,0.842 0.0184,0.1056 0.0339,0.311 0.0203,0.4331 0.0371,0.0424 0.0914,0.0086 0.132,-0.0167 0.0064,-0.0039 0.0124,-0.0077 0.018,-0.0109 0.0035,-0.002 0.0068,-0.0039 0.0099,-0.0054 0.0324,-0.0149 0.0624,-0.0289 0.0904,-0.0421 0.2583,-0.1208 0.36,-0.1683 0.822,-0.2453 0.1005,-0.0141 0.208,-0.024 0.3327,-0.0265 h 0.0397 c 1.2528,0 2.2721,1.1162 2.2721,2.4872 0,1.2148 -0.8201,2.2296 -1.8994,2.445 l -6.4139,0.0238 0.0068,1.6927 5.091,0.0162 c 0.2902,0.0118 0.588,0.0138 0.8882,0.0138 2.2236,0 4.0326,-1.8806 4.0326,-4.1925 0,-2.3118 -1.7838,-4.1915 -3.9774,-4.1915 l -0.0557,8e-4 c -0.6108,-1.6624 -2.3375,-2.8649 -4.3596,-2.8649 z"
       fill="#000000"
       id="path18" />
    <path
       d="m 34.0351,33.5117 c 0,0 -0.0096,0.002 -0.0261,0.0049 z"
       fill="#000000"
       id="path20" />
  </g>
  <defs
     id="defs27">
    <clipPath
       id="clip0">
      <rect
         width="79.935204"
         height="37.400002"
         fill="#ffffff"
         transform="translate(0.100098)"
         id="rect24"
         x="0"
         y="0" />
    </clipPath>
  </defs>
</svg>
