<?xml version="1.0" encoding="UTF-8" standalone="no"?>
<svg
   width="46.408352"
   height="37.016838"
   viewBox="0 0 46.408352 37.016838"
   fill="none"
   version="1.1"
   id="svg41"
   sodipodi:docname="e2ce491e59b2f71bd483682362f8f6b0.svg"
   xmlns:inkscape="http://www.inkscape.org/namespaces/inkscape"
   xmlns:sodipodi="http://sodipodi.sourceforge.net/DTD/sodipodi-0.dtd"
   xmlns="http://www.w3.org/2000/svg"
   xmlns:svg="http://www.w3.org/2000/svg">
  <sodipodi:namedview
     id="namedview43"
     pagecolor="#ffffff"
     bordercolor="#666666"
     borderopacity="1.0"
     inkscape:pageshadow="2"
     inkscape:pageopacity="0.0"
     inkscape:pagecheckerboard="0" />
  <g
     clip-path="url(#clip0)"
     id="g34"
     transform="translate(-0.210449,-0.101562)">
    <path
       fill-rule="evenodd"
       clip-rule="evenodd"
       d="m 32.2268,24.0792 c 0,1.0112 -0.157,1.9577 -0.4664,2.8304 -0.3139,0.8726 -0.7526,1.6391 -1.3251,2.2901 -0.5726,0.6557 -1.2698,1.1636 -2.1009,1.533 -0.8265,0.3694 -1.7499,0.5541 -2.7611,0.5541 -1.1036,0 -2.0824,-0.2217 -2.9274,-0.6649 -0.845,-0.4433 -1.5098,-1.0666 -1.99,-1.8793 v 7.9002 H 18.8597 V 16.7331 h 1.7685 v 1.9623 c 0.4986,-0.7711 1.1635,-1.3528 2.0039,-1.7407 0.8403,-0.3878 1.7361,-0.5818 2.6918,-0.5818 1.122,0 2.1194,0.2032 2.9828,0.6095 0.8634,0.4063 1.5883,0.9558 2.1701,1.6576 0.5818,0.7018 1.0158,1.5191 1.3113,2.461 0.2909,0.9373 0.4387,1.93 0.4387,2.9782 z m -1.7961,0 c 0,-0.7757 -0.0924,-1.5376 -0.2771,-2.2948 C 29.9689,21.0318 29.6642,20.3576 29.244,19.7666 28.8192,19.1802 28.2651,18.7 27.5726,18.3307 26.88,17.9613 26.0396,17.7766 25.0423,17.7766 c -0.4987,0 -1.0066,0.0923 -1.533,0.277 -0.5263,0.1847 -1.0065,0.434 -1.4359,0.748 -0.4341,0.314 -0.7804,0.688 -1.0482,1.1174 -0.2678,0.434 -0.4017,0.8958 -0.4017,1.3944 v 4.585 c 0,0.6279 0.1339,1.182 0.4017,1.6714 0.2678,0.4895 0.6188,0.905 1.0482,1.2421 0.434,0.3417 0.928,0.6049 1.4914,0.7849 0.5633,0.1847 1.1358,0.2771 1.7268,0.2771 0.845,0 1.593,-0.1524 2.2348,-0.4571 0.6464,-0.3048 1.182,-0.7203 1.616,-1.2421 0.4341,-0.5218 0.7573,-1.1405 0.965,-1.8515 0.2217,-0.7019 0.3233,-1.4499 0.3233,-2.244 z"
       fill="#4ec1f0"
       id="path2" />
    <path
       fill-rule="evenodd"
       clip-rule="evenodd"
       d="m 13.222,33.5815 c 0.2401,-0.7341 0.3601,-1.556 0.3601,-2.4564 h 0.0046 V 16.7377 H 11.7906 V 18.7 C 11.3104,17.9243 10.6501,17.3471 9.8144,16.9593 8.97405,16.5714 8.0783,16.3775 7.11791,16.3775 c -1.122,0 -2.11472,0.2032 -2.98277,0.6095 -0.86805,0.4063 -1.58834,0.9604 -2.17012,1.6576 -0.57716,0.7018 -1.015805,1.5237 -1.311311,2.461 -0.295507,0.9373 -0.44326,1.9347 -0.44326,2.9828 0,1.0112 0.156988,1.9577 0.470963,2.8304 0.313975,0.8726 0.752618,1.6345 1.325158,2.2901 0.57255,0.6557 1.26514,1.1636 2.08702,1.533 0.81725,0.3694 1.74533,0.5541 2.77498,0.5541 1.10353,0 2.07778,-0.2217 2.92736,-0.6649 0.84497,-0.4433 1.51907,-1.0666 2.01777,-1.8793 v 2.4841 c 0,1.4729 -0.3879,2.618 -1.159,3.4399 -0.77566,0.8173 -1.91613,1.2282 -3.42598,1.2282 -0.5356,0 -1.03889,-0.0646 -1.51908,-0.1939 C 5.22944,35.5808 4.80926,35.3776 4.43988,35.1006 4.07512,34.8282 3.77038,34.4773 3.53028,34.0525 3.29018,33.6277 3.15166,33.1336 3.11472,32.5611 H 1.3463 c 0.05541,0.8496 0.25395,1.5606 0.59563,2.1424 0.34168,0.5818 0.78032,1.0481 1.32516,1.4083 0.54484,0.3555 1.15894,0.6141 1.85153,0.7711 0.68798,0.157 1.40827,0.2355 2.16551,0.2355 1.10353,0 2.05931,-0.1432 2.85807,-0.4295 0.8034,-0.2862 1.4545,-0.6879 1.9624,-1.2143 0.5033,-0.5264 0.8773,-1.1543 1.1174,-1.8931 z M 11.4166,19.9236 c 0.2678,0.434 0.4017,0.8957 0.4017,1.3944 l -0.0231,4.5942 c 0,0.628 -0.1339,1.1866 -0.4017,1.6715 -0.2678,0.4894 -0.6095,0.9003 -1.0343,1.242 C 9.93445,29.1628 9.44502,29.426 8.88171,29.6106 8.3184,29.7953 7.74586,29.8877 7.15484,29.8877 6.2868,29.8877 5.5388,29.7353 4.90161,29.4306 4.26443,29.1258 3.73344,28.7149 3.29941,28.1885 2.87,27.6622 2.54679,27.0434 2.3344,26.337 2.122,25.6259 2.01581,24.8779 2.01581,24.0838 c 0,-0.7757 0.09234,-1.5376 0.27703,-2.2948 0.18008,-0.7573 0.48482,-1.4268 0.90961,-2.0178 0.42479,-0.5864 0.97886,-1.0666 1.67146,-1.436 0.68797,-0.3693 1.53294,-0.554 2.52565,-0.554 0.49867,0 1.00657,0.0923 1.53294,0.277 0.52637,0.1847 1.00195,0.434 1.436,0.748 0.4294,0.314 0.7803,0.6834 1.0481,1.1174 z"
       fill="#4ec1f0"
       id="path4" />
    <path
       d="m 15.2397,16.7331 v 14.2258 h 1.7962 V 16.7331 Z"
       fill="#4ec1f0"
       id="path6" />
    <path
       fill-rule="evenodd"
       clip-rule="evenodd"
       d="m 46.1893,26.6464 c 0.2863,-0.9004 0.4295,-1.8377 0.4295,-2.8166 0,-0.9742 -0.1432,-1.9069 -0.4295,-2.8027 -0.2862,-0.8911 -0.7064,-1.6806 -1.2697,-2.3732 -0.5633,-0.6926 -1.2651,-1.2421 -2.1147,-1.6576 -0.845,-0.4156 -1.8239,-0.6234 -2.9274,-0.6234 -1.122,0 -2.1055,0.2078 -2.955,0.6234 -0.8496,0.4155 -1.5514,0.965 -2.1148,1.6576 -0.5633,0.6879 -0.9834,1.4821 -1.2697,2.3732 -0.2863,0.8912 -0.4294,1.8285 -0.4294,2.8027 0,0.9743 0.1431,1.9162 0.4294,2.8166 0.2863,0.905 0.7064,1.6991 1.2697,2.3917 0.5634,0.6926 1.2652,1.2375 2.1148,1.6438 0.8449,0.4063 1.8238,0.6095 2.9273,0.6095 1.122,0 2.1009,-0.2032 2.9412,-0.6095 0.8404,-0.4063 1.5422,-0.9512 2.1147,-1.6438 0.568,-0.6926 0.9974,-1.4867 1.2836,-2.3917 z m -1.6714,-5.0421 c 0.2031,0.7295 0.3047,1.4729 0.3047,2.2255 0,0.7757 -0.0969,1.5284 -0.3047,2.2533 -0.2032,0.7295 -0.5033,1.3713 -0.9096,1.9346 -0.4017,0.5633 -0.9189,1.0112 -1.5422,1.3529 -0.6233,0.3417 -1.3482,0.5125 -2.1747,0.5125 -0.845,0 -1.5791,-0.1708 -2.2025,-0.5125 -0.6233,-0.3417 -1.1451,-0.7942 -1.556,-1.3667 -0.4156,-0.5726 -0.7203,-1.2144 -0.9235,-1.9347 -0.2031,-0.7203 -0.3047,-1.4637 -0.3047,-2.2394 0,-0.7572 0.1016,-1.496 0.3047,-2.2255 0.2032,-0.7295 0.5126,-1.3713 0.9235,-1.9346 0.4109,-0.5633 0.9327,-1.0158 1.556,-1.3668 0.6234,-0.3509 1.3575,-0.5263 2.2025,-0.5263 0.8265,0 1.5514,0.1754 2.1747,0.5263 0.6233,0.351 1.1405,0.8035 1.5422,1.3668 0.4063,0.5633 0.7064,1.2051 0.9096,1.9346 z"
       fill="#4ec1f0"
       id="path8" />
    <path
       d="m 17.3219,12.9284 c 0,0.6649 -0.5356,1.2005 -1.2005,1.2005 -0.6649,0 -1.2005,-0.5356 -1.2005,-1.2005 0,-0.6649 0.5402,-1.2005 1.2005,-1.2005 0.6603,0 1.2005,0.5356 1.2005,1.2005 z"
       fill="#40bfef"
       id="path10" />
    <path
       opacity="0.4"
       d="m 17.2667,1.30206 c 0,0.66489 -0.5402,1.20049 -1.2005,1.20049 -0.6649,0 -1.2005,-0.54022 -1.2005,-1.20049 0,-0.664892 0.5356,-1.200498 1.2005,-1.200498 0.6603,0 1.2005,0.540223 1.2005,1.200498 z"
       fill="#40bfef"
       id="path12" />
    <path
       opacity="0.7"
       d="m 23.1769,7.10137 c 0,0.66489 -0.5403,1.2005 -1.2005,1.2005 -0.6649,0 -1.2005,-0.54022 -1.2005,-1.2005 0,-0.66027 0.5402,-1.20049 1.2005,-1.20049 0.6602,0 1.2005,0.5356 1.2005,1.20049 z"
       fill="#40bfef"
       id="path14" />
    <path
       opacity="0.15"
       d="m 11.5042,7.09676 c 0,0.66489 -0.5402,1.2005 -1.2051,1.2005 -0.66486,0 -1.20047,-0.53561 -1.20047,-1.2005 0,-0.66489 0.54023,-1.20049 1.20047,-1.20049 0.6649,-0.00462 1.2051,0.5356 1.2051,1.20049 z"
       fill="#40bfef"
       id="path16" />
    <path
       opacity="0.1"
       d="m 12.2984,10.0287 c 0,0.6649 -0.5402,1.2005 -1.2004,1.2005 -0.6649,0 -1.20054,-0.5402 -1.20054,-1.2005 0,-0.66023 0.54024,-1.20045 1.20054,-1.20045 0.6602,0 1.2004,0.5356 1.2004,1.20045 z"
       fill="#40bfef"
       id="path18" />
    <path
       opacity="0.2"
       d="m 12.2892,4.21099 c 0,0.66489 -0.5403,1.2005 -1.2005,1.2005 -0.6649,0 -1.20052,-0.53561 -1.20052,-1.2005 0,-0.66489 0.54022,-1.20049 1.20052,-1.20049 0.6649,0 1.2005,0.5356 1.2005,1.20049 z"
       fill="#40bfef"
       id="path20" />
    <path
       opacity="0.8"
       d="m 22.3502,10.0057 c 0,0.6649 -0.5356,1.2005 -1.2005,1.2005 -0.6649,0 -1.2005,-0.5403 -1.2005,-1.2005 0,-0.6603 0.5356,-1.20052 1.2005,-1.20052 0.6649,0 1.2005,0.54022 1.2005,1.20052 z"
       fill="#40bfef"
       id="path22" />
    <path
       opacity="0.6"
       d="m 22.3546,4.19254 c 0,0.66489 -0.5402,1.20049 -1.2005,1.20049 -0.6649,0 -1.2005,-0.5356 -1.2005,-1.20049 0,-0.66489 0.5402,-1.20511 1.2005,-1.20511 0.6603,0 1.2005,0.54022 1.2005,1.20511 z"
       fill="#40bfef"
       id="path24" />
    <path
       opacity="0.05"
       d="m 14.4083,12.1389 c 0,0.6649 -0.5402,1.2005 -1.2005,1.2005 -0.6649,0 -1.2005,-0.5403 -1.2005,-1.2005 0,-0.6603 0.5402,-1.2005 1.2005,-1.2005 0.6603,-0.0046 1.2005,0.5356 1.2005,1.2005 z"
       fill="#40bfef"
       id="path26" />
    <path
       opacity="0.3"
       d="m 14.4178,2.08233 c 0,0.66489 -0.5402,1.20049 -1.2051,1.20049 -0.6649,0 -1.2005,-0.54022 -1.2005,-1.20049 0,-0.66489 0.5402,-1.200494 1.2005,-1.200494 0.6695,0 1.2051,0.535604 1.2051,1.200494 z"
       fill="#40bfef"
       id="path28" />
    <path
       opacity="0.9"
       d="m 20.2262,12.1388 c 0,0.6649 -0.5356,1.2005 -1.2005,1.2005 -0.6649,0 -1.2005,-0.5402 -1.2005,-1.2005 0,-0.6648 0.5356,-1.2004 1.2005,-1.2004 0.6649,0 1.2005,0.5356 1.2005,1.2004 z"
       fill="#40bfef"
       id="path30" />
    <path
       opacity="0.5"
       d="m 20.2355,2.07781 c 0,0.66489 -0.5356,1.2005 -1.2005,1.2005 -0.6649,0 -1.2005,-0.54023 -1.2005,-1.2005 0,-0.66489 0.5356,-1.200491 1.2005,-1.200491 0.6649,0 1.2005,0.535601 1.2005,1.200491 z"
       fill="#40bfef"
       id="path32" />
  </g>
  <defs
     id="defs39">
    <clipPath
       id="clip0">
      <rect
         width="46.634602"
         height="37.400002"
         fill="#ffffff"
         transform="translate(0.0351562)"
         id="rect36"
         x="0"
         y="0" />
    </clipPath>
  </defs>
</svg>
