<?xml version="1.0" encoding="UTF-8" standalone="no"?>
<svg
   width="105.79102"
   height="30.000059"
   viewBox="0 0 105.79102 30.000059"
   fill="none"
   version="1.1"
   id="svg6"
   sodipodi:docname="4b7e018403f208607c11436b7c7771e9.svg"
   xmlns:inkscape="http://www.inkscape.org/namespaces/inkscape"
   xmlns:sodipodi="http://sodipodi.sourceforge.net/DTD/sodipodi-0.dtd"
   xmlns="http://www.w3.org/2000/svg"
   xmlns:svg="http://www.w3.org/2000/svg">
  <defs
     id="defs10" />
  <sodipodi:namedview
     id="namedview8"
     pagecolor="#ffffff"
     bordercolor="#666666"
     borderopacity="1.0"
     inkscape:pageshadow="2"
     inkscape:pageopacity="0.0"
     inkscape:pagecheckerboard="0" />
  <path
     fill-rule="evenodd"
     clip-rule="evenodd"
     d="M 11.879016,5.48369 C 12.381316,2.37673 15.074316,0 18.325516,0 c 3.6093,0 6.5348,2.92557 6.5348,6.5395 0,3.60926 -2.9255,6.53486 -6.5348,6.53486 -2.7675,0 -5.1302,-1.7256 -6.0837,-4.15812 L 0,10.03716 V 6.53485 Z m 1.6418,1.05116 c 0,2.65115 2.1535,4.80461 4.8047,4.80461 2.6511,0 4.8046,-2.15346 4.8046,-4.80461 0,-2.65115 -2.1535,-4.80463 -4.8046,-4.80463 -2.6512,0 -4.8047,2.15348 -4.8047,4.80463 z m 2.8554,-1.31184 c -0.9163,0.69767 -1.6465,2.03255 -1.6465,2.03255 0,0 -0.2232,-2.31627 1.1349,-3.40929 1.1163,-0.90232 2.4,-0.91628 2.4,-0.91628 v 1.58605 c 0,0 -0.8605,-0.07907 -1.8884,0.70697 z m 5.2136,9.10735 0.0093,4.4 c -0.1023,5.1348 -4.2883,9.2604 -9.4372,9.2604 -5.15342,0 -9.33945,-4.1302 -9.43712,-9.2604 l -0.0093,-1.7628 -1.79069,-0.7675 v 2.5303 c 0,6.2232 5.04648,11.2697 11.26501,11.2697 6.2186,0 11.2651,-5.0465 11.2651,-11.2697 v -5.7489 c 0,0 -0.5907,0.507 -0.9628,0.7768 -0.3721,0.2698 -0.9023,0.5721 -0.9023,0.5721 z m -18.7289,-0.2839 1.8093,0.4325 h 6.7162 v 0.8559 h 1.8326 v -0.8559 h 6.7162 v 1.0931 c 0,1.9953 -1.5023,3.6139 -3.3581,3.6139 -1.5674,0 -2.8837,-1.1581 -3.2511,-2.7209 h -2.0512 c -0.3674,1.5581 -1.6837,2.7209 -3.25113,2.7209 -1.85581,0 -3.35813,-1.6186 -3.35813,-3.6139 v 0.3116 l -3.65579,-1.4047 v -2.9627 l 1.83255,-0.1582 z m 2.93487,1.5628 c 0.01861,1.3535 1.01395,2.4465 2.23255,2.4465 1.2186,0 2.21398,-1.093 2.22788,-2.4465 z m 10.78133,2.4465 c 1.2233,0 2.214,-1.093 2.2326,-2.4465 h -4.4605 c 0.014,1.3535 1.0093,2.4465 2.2279,2.4465 z"
     fill="#8ad223"
     id="path2" />
  <path
     fill-rule="evenodd"
     clip-rule="evenodd"
     d="m 32.042216,26.98156 c 0.2512,0.0604 1.0186,0.1441 1.707,0.1441 2.4558,0 3.3767,-0.879 3.3767,-3.6046 v -12.7162 h -2.7721 v 12.7162 c 0,1.186 -0.1442,1.5209 -1.1255,1.5209 -0.4559,0 -0.8512,0 -1.1861,-0.0232 z m 2.2884,-20.63714 v 2.6465 h 2.8325 v -2.6465 z m 38.9389,11.39984 v -0.2093 h 7.8511 v -0.9162 c 0,-3.5628 -1.372,-6.107 -5.2883,-6.107 -3.4977,0 -5.293,1.9163 -5.293,5.8558 v 0.7349 c 0,4.1302 1.4977,5.7534 5.7302,5.7534 1.9581,0 3.4837,-0.293 4.3535,-0.5023 v -2.0651 c -1.5396,0.1442 -3,0.2698 -4.2279,0.2698 -2.8744,0 -3.1256,-1.1023 -3.1256,-2.814 z m 2.5628,-5.0185 c 2.2744,0 2.5442,1.479 2.5442,2.8325 v 0.186 h -5.0884 v -0.186 c 0,-1.3349 0.3349,-2.8325 2.5442,-2.8325 z m -10.5122,9.8138 v -7.6884 c 0,-1.293 -0.0233,-2.0418 -1.4791,-2.0418 -0.6698,0 -1.6232,0.2698 -2.4372,0.7116 0.0605,0.4558 0.0605,0.9163 0.0605,1.3302 v 7.6884 h -2.7488 v -7.6884 c 0,-1.3116 -0.0233,-2.0418 -1.3582,-2.0418 -0.8558,0 -1.8139,0.1674 -2.5209,0.5209 v 9.2093 h -2.7302 v -10.5953 c 0,0 1.4511,-1.3721 5.9767,-1.4279 1.3953,-0.0186 2.3442,0.4046 2.8232,1.1953 1.3349,-0.9163 2.5628,-1.1953 3.6465,-1.1953 3.3163,0 3.5209,2.1907 3.5209,4.293 v 7.7302 z m 25.5396,-11.7905 V 6.34442 l 2.7582,0.48372 v 9.47432 0.1814 6.0419 c -2.1117,0.2511 -3.1768,0.3348 -4.721,0.3348 -3.6743,0 -5.5534,-1.5627 -5.5534,-5.5302 v -1.386 c 0,-4.1349 2.0697,-5.4279 5.0744,-5.4279 0.8744,0 1.6465,0.0838 2.4418,0.2326 z m 0.0186,9.679 v -3.9442 h 0.0047 v -0.1767 -3.2791 c -0.7954,-0.1255 -1.6512,-0.2093 -2.1907,-0.2093 -1.6744,0 -2.5907,0.4791 -2.5907,3.1303 v 1.3906 c 0,2.4605 0.8326,3.1721 2.7535,3.1721 0.6032,0 1.1348,-0.0323 1.5556,-0.0579 h 2e-4 l 4e-4,-10e-5 c 0.176,-0.0107 0.3326,-0.0202 0.467,-0.0257 z m 9.182704,2.4232 c -2.186404,-0.0186 -3.963104,-1.0837 -3.963104,-3.3581 v -0.4372 c 0,-3.1256 2.2511,-3.5442 5.544104,-3.5442 h 1.395 v -0.7256 c 0,-1.6651 -0.353,-2 -2.437,-2 -1.167204,0 -2.395204,0.0837 -3.688204,0.2279 v -1.8558 c 0.4977,-0.2093 2.2512,-0.6465 4.149204,-0.6465 3.748,0 4.73,1.2698 4.73,4.2744 v 7.7349 c 0,0 -2.163,0.3627 -5.73,0.3302 z m 3.041,-5.6511 h -1.455 c -2.023504,0 -2.874704,0.2279 -2.874704,1.772 v 0.4977 c 0,1.0837 1.0467,1.3767 2.027704,1.3767 0.689,0 1.698,-0.0279 2.307,-0.1116 v -3.5348 z m -63.455804,2.293 c 0,2.2744 1.7768,3.3395 3.9628,3.3581 3.5674,0.0325 5.7302,-0.3302 5.7302,-0.3302 v -7.7349 c 0,-3.0046 -0.9767,-4.2744 -4.7302,-4.2744 -1.8977,0 -3.6465,0.4372 -4.1488,0.6465 v 1.8558 c 1.293,-0.1442 2.5209,-0.2279 3.6883,-0.2279 2.0837,0 2.4372,0.3349 2.4372,2 v 0.7256 h -1.3953 c -3.293,0 -5.5442,0.4186 -5.5442,3.5442 z m 5.5442,-2.293 h 1.4604 v 3.5348 c -0.6093,0.0837 -1.6186,0.1116 -2.3069,0.1116 -0.9814,0 -2.0279,-0.293 -2.0279,-1.3767 v -0.4977 c 0,-1.5441 0.8511,-1.772 2.8744,-1.772 z"
     fill="#01a3d4"
     id="path4" />
</svg>
